<svg width="21" height="25" viewBox="0 0 21 25" fill="none" xmlns="http://www.w3.org/2000/svg">
<path d="M17.5577 13.2111C17.5465 11.1627 18.4726 9.6167 20.3472 8.4781C19.2984 6.97672 17.7139 6.15067 15.6217 5.98881C13.6411 5.83253 11.4764 7.14416 10.6841 7.14416C9.84724 7.14416 7.928 6.04463 6.42163 6.04463C3.30845 6.09486 0 8.52834 0 13.479C0 14.9413 0.2678 16.452 0.803401 18.0111C1.51753 20.0595 4.09511 25.0827 6.78427 24.999C8.19022 24.9655 9.18332 23.9999 11.0133 23.9999C12.7875 23.9999 13.708 24.999 15.2758 24.999C17.9872 24.9599 20.3193 20.3943 21 18.3404C17.3624 16.6269 17.5577 13.3172 17.5577 13.2111ZM14.3998 4.04649C15.923 2.23813 15.7835 0.591625 15.7388 0C14.3943 0.0781392 12.8377 0.915345 11.9506 1.9479C10.9742 3.05301 10.3996 4.42045 10.5223 5.96091C11.9785 6.07253 13.3063 5.32463 14.3998 4.04649Z" fill="#1E1E1E"/>
</svg>
