<?xml version="1.0" encoding="UTF-8"?>
<svg version="1.1" xmlns="http://www.w3.org/2000/svg" width="50" height="50">
<path d="M0 0 C3.125 2.0625 3.125 2.0625 5 5 C5.3125 8.8125 5.3125 8.8125 5 12 C6.299375 11.979375 7.59875 11.95875 8.9375 11.9375 C10.29165633 11.91600546 11.64756083 11.92851801 13 12 C15.05952217 14.05952217 14.67379289 18.13234304 14.97265625 20.97265625 C15.05028198 21.67934448 15.12790771 22.38603271 15.20788574 23.11413574 C15.49754878 25.76307091 15.77955748 28.41283856 16.0625 31.0625 C16.701875 36.981875 17.34125 42.90125 18 49 C2.82 49 -12.36 49 -28 49 C-27.360625 43.080625 -26.72125 37.16125 -26.0625 31.0625 C-25.86277588 29.19215088 -25.66305176 27.32180176 -25.45727539 25.39477539 C-25.29608388 23.92069756 -25.13456676 22.44665528 -24.97265625 20.97265625 C-24.89140503 20.20046753 -24.81015381 19.42827881 -24.72644043 18.63269043 C-24.1140718 13.1140718 -24.1140718 13.1140718 -23 12 C-20.32941149 11.85884839 -17.67567762 11.95752893 -15 12 C-15.103125 10.948125 -15.20625 9.89625 -15.3125 8.8125 C-15 5 -15 5 -13.125 2.0625 C-8.74948817 -0.82533781 -5.10170093 -1.02870363 0 0 Z M-10.3125 4.6875 C-12.40738061 7.21863146 -12.40738061 7.21863146 -13 12 C-7.72 12 -2.44 12 3 12 C1.84448274 5.09524241 1.84448274 5.09524241 -2 3 C-5.63127267 2.53643328 -7.31967869 2.50354931 -10.3125 4.6875 Z M-21 14 C-21.50666472 18.18672147 -22.00413918 22.37448633 -22.5 26.5625 C-22.64308594 27.74392578 -22.78617188 28.92535156 -22.93359375 30.14257812 C-23.13662109 31.86831055 -23.13662109 31.86831055 -23.34375 33.62890625 C-23.53227539 35.2078064 -23.53227539 35.2078064 -23.72460938 36.81860352 C-24.01739868 40.20099491 -24 43.60495992 -24 47 C-11.46 47 1.08 47 14 47 C13.24666353 34.20569314 13.24666353 34.20569314 11.9375 21.5 C11.84662109 20.76136719 11.75574219 20.02273437 11.66210938 19.26171875 C11.44565306 17.50728332 11.22353393 15.75354771 11 14 C9.02 14 7.04 14 5 14 C5.33 15.98 5.66 17.96 6 20 C4.68 20 3.36 20 2 20 C2.33 18.02 2.66 16.04 3 14 C-2.28 14 -7.56 14 -13 14 C-12.67 15.98 -12.34 17.96 -12 20 C-13.32 20 -14.64 20 -16 20 C-15.67 18.02 -15.34 16.04 -15 14 C-16.98 14 -18.96 14 -21 14 Z " fill="#000000" transform="translate(30,1)"/>
</svg>
