<svg width="23" height="22" viewBox="0 0 23 22" fill="none" xmlns="http://www.w3.org/2000/svg">
<path d="M11.5 9.24992V9.26159M6.83333 9.24992V9.26159M16.1667 9.24992V9.26159M18.5 1.08325C19.4283 1.08325 20.3185 1.452 20.9749 2.10838C21.6313 2.76476 22 3.65499 22 4.58325V13.9166C22 14.8448 21.6313 15.7351 20.9749 16.3915C20.3185 17.0478 19.4283 17.4166 18.5 17.4166H12.6667L6.83333 20.9166V17.4166H4.5C3.57174 17.4166 2.6815 17.0478 2.02513 16.3915C1.36875 15.7351 1 14.8448 1 13.9166V4.58325C1 3.65499 1.36875 2.76476 2.02513 2.10838C2.6815 1.452 3.57174 1.08325 4.5 1.08325H18.5Z" stroke="currentColor" stroke-width="2" stroke-linecap="round" stroke-linejoin="round"/>
</svg>
