<svg width="40" height="57" viewBox="0 0 40 57" fill="none" xmlns="http://www.w3.org/2000/svg">
<path d="M6.80507 47.2959C4.0985 47.2959 1.99339 49.4187 1.89314 52.0469C1.89314 54.7761 3.99826 56.8989 6.60459 57C9.31116 57 11.4163 54.8772 11.5165 52.249C11.5165 49.5198 9.4114 47.2959 6.80507 47.2959ZM6.70483 54.2707C5.50191 54.2707 4.59972 53.2599 4.59972 52.148C4.59972 50.9349 5.60215 50.0252 6.70483 50.0252C7.90775 50.0252 8.80994 51.036 8.80994 52.148C8.80994 53.361 7.80751 54.2707 6.70483 54.2707ZM31.1642 47.2959C28.4577 47.2959 26.3526 49.4187 26.2523 52.0469C26.2523 54.7761 28.3574 56.8989 30.9638 57C33.6703 57 35.7754 54.8772 35.8757 52.249C35.9759 49.5198 33.8708 47.2959 31.1642 47.2959ZM31.064 54.2707C29.8611 54.2707 28.9589 53.2599 28.9589 52.148C28.9589 50.9349 29.9613 50.0252 31.064 50.0252C32.2669 50.0252 33.1691 51.036 33.1691 52.148C33.1691 53.361 32.2669 54.2707 31.064 54.2707ZM38.1813 18.7901C36.6776 17.0717 34.4723 16.0608 32.1667 16.0608H7.10581L7.90775 10.1979C8.20848 7.56975 7.20605 4.84047 5.20118 3.12204L1.99339 0.291673C1.49217 -0.112665 0.690221 -0.112665 0.289247 0.392757C-0.111727 0.898179 -0.111728 1.70685 0.38949 2.11119L3.59728 4.84047C5.00069 6.05348 5.7024 7.873 5.40167 9.69252L4.49947 16.7684C4.49947 16.8695 4.39923 16.9706 4.39923 17.1728L2.19387 34.3571C1.89314 36.581 2.59485 38.9059 4.0985 40.6243C5.60215 42.3428 7.70727 43.3536 10.0129 43.3536H30.3623C32.2669 43.3536 34.0713 42.646 35.4747 41.433C36.8781 40.22 37.8806 38.5016 38.0811 36.581L39.7852 24.9563C40.3867 22.8335 39.6849 20.5085 38.1813 18.7901ZM11.0153 41.0287H10.0129C8.40897 41.0287 7.00556 40.3211 5.90288 39.2092C4.90045 37.9961 4.39923 36.4799 4.59972 34.8625V34.6604H11.717L11.0153 41.0287ZM12.118 32.2343H5.10094L5.7024 27.3823H12.7194L12.118 32.2343ZM6.00313 24.8552L6.80507 18.4869H13.6216L12.9199 24.8552H6.00313ZM18.9345 41.0287H13.5214L14.2231 34.6604H19.6362L18.9345 41.0287ZM19.937 32.2343H14.5238L15.1253 27.3823H20.5384L19.937 32.2343ZM15.426 24.8552L16.1277 18.4869H21.5409L20.7389 24.8552H15.426ZM26.7535 41.0287H21.3404L22.0421 34.6604H27.4552L26.7535 41.0287ZM27.756 32.2343H22.3428L22.9443 27.3823H28.3574L27.756 32.2343ZM23.245 24.8552L24.047 18.4869H29.4601L28.6582 24.8552H23.245ZM35.7755 36.3788C35.3745 39.1081 33.0689 41.0287 30.4625 41.0287H29.2596L30.0616 34.6604H36.0762L35.7755 36.3788ZM36.4772 32.2343H30.2621L30.8635 27.3823H37.1789L36.4772 32.2343ZM37.5798 24.7541L31.1642 24.8552L31.9662 18.4869H32.2669C33.8708 18.4869 35.3745 19.1944 36.3769 20.4075C37.3793 21.6205 37.7803 23.2378 37.5798 24.7541Z" fill="currentColor"/>
</svg>
