<svg width="17" height="20" viewBox="0 0 17 20" fill="none" xmlns="http://www.w3.org/2000/svg">
<path d="M6.07143 4.53564C6.07143 3.19614 7.16049 2.10707 8.5 2.10707C9.83951 2.10707 10.9286 3.19614 10.9286 4.53564V6.35707H6.07143V4.53564ZM4.25 6.35707H1.82143C0.815848 6.35707 0 7.17292 0 8.1785V16.0714C0 18.0825 1.6317 19.7142 3.64286 19.7142H13.3571C15.3683 19.7142 17 18.0825 17 16.0714V8.1785C17 7.17292 16.1842 6.35707 15.1786 6.35707H12.75V4.53564C12.75 2.18676 10.8489 0.285645 8.5 0.285645C6.15112 0.285645 4.25 2.18676 4.25 4.53564V6.35707ZM5.16071 8.1785C5.40225 8.1785 5.63389 8.27445 5.80469 8.44524C5.97548 8.61603 6.07143 8.84768 6.07143 9.08922C6.07143 9.33075 5.97548 9.5624 5.80469 9.73319C5.63389 9.90398 5.40225 9.99993 5.16071 9.99993C4.91918 9.99993 4.68753 9.90398 4.51674 9.73319C4.34595 9.5624 4.25 9.33075 4.25 9.08922C4.25 8.84768 4.34595 8.61603 4.51674 8.44524C4.68753 8.27445 4.91918 8.1785 5.16071 8.1785ZM10.9286 9.08922C10.9286 8.84768 11.0245 8.61603 11.1953 8.44524C11.3661 8.27445 11.5977 8.1785 11.8393 8.1785C12.0808 8.1785 12.3125 8.27445 12.4833 8.44524C12.654 8.61603 12.75 8.84768 12.75 9.08922C12.75 9.33075 12.654 9.5624 12.4833 9.73319C12.3125 9.90398 12.0808 9.99993 11.8393 9.99993C11.5977 9.99993 11.3661 9.90398 11.1953 9.73319C11.0245 9.5624 10.9286 9.33075 10.9286 9.08922Z" fill="currentColor"/>
</svg>
