<svg width="147" height="98" viewBox="0 0 147 98" fill="none" xmlns="http://www.w3.org/2000/svg">
<path d="M59.8051 47.2959C57.0985 47.2959 54.9934 49.4187 54.8931 52.0469C54.8931 54.7761 56.9983 56.8989 59.6046 57C62.3112 57 64.4163 54.8772 64.5165 52.249C64.5165 49.5198 62.4114 47.2959 59.8051 47.2959ZM59.7048 54.2707C58.5019 54.2707 57.5997 53.2599 57.5997 52.148C57.5997 50.9349 58.6022 50.0252 59.7048 50.0252C60.9078 50.0252 61.8099 51.036 61.8099 52.148C61.8099 53.361 60.8075 54.2707 59.7048 54.2707ZM84.1642 47.2959C81.4577 47.2959 79.3526 49.4187 79.2523 52.0469C79.2523 54.7761 81.3574 56.8989 83.9638 57C86.6703 57 88.7754 54.8772 88.8757 52.249C88.9759 49.5198 86.8708 47.2959 84.1642 47.2959ZM84.064 54.2707C82.8611 54.2707 81.9589 53.2599 81.9589 52.148C81.9589 50.9349 82.9613 50.0252 84.064 50.0252C85.2669 50.0252 86.1691 51.036 86.1691 52.148C86.1691 53.361 85.2669 54.2707 84.064 54.2707ZM91.1813 18.7901C89.6776 17.0717 87.4723 16.0608 85.1667 16.0608H60.1058L60.9078 10.1979C61.2085 7.56975 60.206 4.84047 58.2012 3.12204L54.9934 0.291673C54.4922 -0.112665 53.6902 -0.112665 53.2892 0.392757C52.8883 0.898179 52.8883 1.70685 53.3895 2.11119L56.5973 4.84047C58.0007 6.05348 58.7024 7.873 58.4017 9.69252L57.4995 16.7684C57.4995 16.8695 57.3992 16.9706 57.3992 17.1728L55.1939 34.3571C54.8931 36.581 55.5948 38.9059 57.0985 40.6243C58.6022 42.3428 60.7073 43.3536 63.0129 43.3536H83.3623C85.2669 43.3536 87.0713 42.646 88.4747 41.433C89.8781 40.22 90.8806 38.5016 91.0811 36.581L92.7852 24.9563C93.3867 22.8335 92.6849 20.5085 91.1813 18.7901ZM64.0153 41.0287H63.0129C61.409 41.0287 60.0056 40.3211 58.9029 39.2092C57.9004 37.9961 57.3992 36.4799 57.5997 34.8625V34.6604H64.717L64.0153 41.0287ZM65.118 32.2343H58.1009L58.7024 27.3823H65.7194L65.118 32.2343ZM59.0031 24.8552L59.8051 18.4869H66.6216L65.9199 24.8552H59.0031ZM71.9345 41.0287H66.5214L67.2231 34.6604H72.6362L71.9345 41.0287ZM72.937 32.2343H67.5238L68.1253 27.3823H73.5384L72.937 32.2343ZM68.426 24.8552L69.1277 18.4869H74.5409L73.7389 24.8552H68.426ZM79.7535 41.0287H74.3404L75.0421 34.6604H80.4552L79.7535 41.0287ZM80.756 32.2343H75.3428L75.9443 27.3823H81.3574L80.756 32.2343ZM76.245 24.8552L77.047 18.4869H82.4601L81.6582 24.8552H76.245ZM88.7755 36.3788C88.3745 39.1081 86.0689 41.0287 83.4625 41.0287H82.2596L83.0616 34.6604H89.0762L88.7755 36.3788ZM89.4772 32.2343H83.2621L83.8635 27.3823H90.1789L89.4772 32.2343ZM90.5798 24.7541L84.1642 24.8552L84.9662 18.4869H85.2669C86.8708 18.4869 88.3745 19.1944 89.3769 20.4075C90.3793 21.6205 90.7803 23.2378 90.5798 24.7541Z" fill="white"/>
<path d="M2.12962 89V85.0625L14.5046 68.5455H2.18075V62.8182H23.5558V66.7557L11.1808 83.2727H23.5046V89H2.12962ZM32.5973 89.3068C31.3445 89.3068 30.2365 89.1023 29.2734 88.6932C28.3189 88.2756 27.5689 87.6449 27.0234 86.8011C26.478 85.9574 26.2053 84.8835 26.2053 83.5795C26.2053 82.5057 26.3885 81.5895 26.755 80.831C27.1214 80.0639 27.6328 79.4375 28.2891 78.9517C28.9453 78.4659 29.7081 78.0952 30.5774 77.8395C31.4553 77.5838 32.4013 77.4176 33.4155 77.3409C34.5149 77.2557 35.397 77.1534 36.0618 77.0341C36.7351 76.9062 37.2209 76.7315 37.5192 76.5099C37.8175 76.2798 37.9666 75.9773 37.9666 75.6023V75.5511C37.9666 75.0398 37.7706 74.6477 37.3786 74.375C36.9865 74.1023 36.4837 73.9659 35.87 73.9659C35.1967 73.9659 34.647 74.1151 34.2209 74.4134C33.8033 74.7031 33.5518 75.1506 33.4666 75.7557H26.9723C27.0575 74.5625 27.4368 73.4631 28.1101 72.4574C28.7919 71.4432 29.7848 70.6335 31.0888 70.0284C32.3928 69.4148 34.0206 69.108 35.9723 69.108C37.3786 69.108 38.6399 69.2741 39.7564 69.6065C40.8729 69.9304 41.8232 70.3864 42.6072 70.9744C43.3913 71.554 43.9879 72.2358 44.397 73.0199C44.8146 73.7955 45.0234 74.6392 45.0234 75.5511V89H38.4268V86.2386H38.2734C37.8814 86.9716 37.4041 87.5639 36.8416 88.0156C36.2876 88.4673 35.6527 88.7955 34.9368 89C34.2294 89.2045 33.4496 89.3068 32.5973 89.3068ZM34.8984 84.858C35.4354 84.858 35.9382 84.7472 36.407 84.5256C36.8842 84.304 37.272 83.9844 37.5703 83.5668C37.8686 83.1491 38.0178 82.642 38.0178 82.0455V80.4091C37.8303 80.4858 37.63 80.5582 37.4169 80.6264C37.2124 80.6946 36.9908 80.7585 36.7521 80.8182C36.522 80.8778 36.2749 80.9332 36.0107 80.9844C35.755 81.0355 35.4865 81.0824 35.2053 81.125C34.6598 81.2102 34.2124 81.3509 33.8629 81.5469C33.522 81.7344 33.2663 81.9688 33.0959 82.25C32.9339 82.5227 32.853 82.8295 32.853 83.1705C32.853 83.7159 33.0447 84.1335 33.4283 84.4233C33.8118 84.7131 34.3018 84.858 34.8984 84.858ZM51.9876 96.3636C51.1779 96.3636 50.4066 96.2997 49.6737 96.1719C48.9407 96.0526 48.2972 95.8864 47.7433 95.6733L49.2773 90.6619C49.8569 90.8665 50.3853 90.9986 50.8626 91.0582C51.3484 91.1179 51.7617 91.0838 52.1026 90.956C52.4521 90.8281 52.7035 90.5852 52.8569 90.2273L53.0103 89.8693L46.1069 69.3636H53.4705L56.641 82.9659H56.8455L60.0671 69.3636H67.4819L60.3228 90.6364C59.9648 91.7188 59.445 92.6903 58.7631 93.5511C58.0898 94.4205 57.2035 95.1065 56.104 95.6094C55.0046 96.1122 53.6325 96.3636 51.9876 96.3636ZM69.489 89V69.3636H76.3413V73.0966H76.5458C76.9038 71.7159 77.4705 70.706 78.2461 70.0668C79.0302 69.4276 79.9464 69.108 80.9947 69.108C81.3015 69.108 81.604 69.1335 81.9023 69.1847C82.2092 69.2273 82.5032 69.2912 82.7844 69.3764V75.3977C82.435 75.2784 82.0046 75.1889 81.4933 75.1293C80.9819 75.0696 80.543 75.0398 80.1765 75.0398C79.4862 75.0398 78.864 75.1974 78.31 75.5128C77.7646 75.8196 77.3342 76.2543 77.0188 76.8168C76.7035 77.3707 76.5458 78.0227 76.5458 78.7727V89H69.489ZM93.4336 89.358C91.3029 89.358 89.479 88.9361 87.962 88.0923C86.445 87.2401 85.2816 86.0554 84.4719 84.5384C83.6623 83.0128 83.2575 81.2443 83.2575 79.233C83.2575 77.2216 83.6623 75.4574 84.4719 73.9403C85.2816 72.4148 86.445 71.2301 87.962 70.3864C89.479 69.5341 91.3029 69.108 93.4336 69.108C95.5643 69.108 97.3881 69.5341 98.9052 70.3864C100.422 71.2301 101.586 72.4148 102.395 73.9403C103.205 75.4574 103.61 77.2216 103.61 79.233C103.61 81.2443 103.205 83.0128 102.395 84.5384C101.586 86.0554 100.422 87.2401 98.9052 88.0923C97.3881 88.9361 95.5643 89.358 93.4336 89.358ZM93.4847 84.142C94.0813 84.142 94.5969 83.9418 95.0316 83.5412C95.4663 83.1406 95.8029 82.5696 96.0415 81.8281C96.2802 81.0866 96.3995 80.2045 96.3995 79.1818C96.3995 78.1506 96.2802 77.2685 96.0415 76.5355C95.8029 75.794 95.4663 75.223 95.0316 74.8224C94.5969 74.4219 94.0813 74.2216 93.4847 74.2216C92.854 74.2216 92.3129 74.4219 91.8612 74.8224C91.4094 75.223 91.0643 75.794 90.8256 76.5355C90.587 77.2685 90.4677 78.1506 90.4677 79.1818C90.4677 80.2045 90.587 81.0866 90.8256 81.8281C91.0643 82.5696 91.4094 83.1406 91.8612 83.5412C92.3129 83.9418 92.854 84.142 93.4847 84.142ZM125.665 69.3636L119.069 89H110.887L104.29 69.3636H111.705L114.876 82.3523H115.08L118.251 69.3636H125.665ZM132.652 89.3068C131.399 89.3068 130.291 89.1023 129.328 88.6932C128.374 88.2756 127.624 87.6449 127.078 86.8011C126.533 85.9574 126.26 84.8835 126.26 83.5795C126.26 82.5057 126.443 81.5895 126.81 80.831C127.176 80.0639 127.688 79.4375 128.344 78.9517C129 78.4659 129.763 78.0952 130.632 77.8395C131.51 77.5838 132.456 77.4176 133.47 77.3409C134.57 77.2557 135.452 77.1534 136.116 77.0341C136.79 76.9062 137.276 76.7315 137.574 76.5099C137.872 76.2798 138.021 75.9773 138.021 75.6023V75.5511C138.021 75.0398 137.825 74.6477 137.433 74.375C137.041 74.1023 136.538 73.9659 135.925 73.9659C135.251 73.9659 134.702 74.1151 134.276 74.4134C133.858 74.7031 133.607 75.1506 133.521 75.7557H127.027C127.112 74.5625 127.491 73.4631 128.165 72.4574C128.847 71.4432 129.839 70.6335 131.143 70.0284C132.447 69.4148 134.075 69.108 136.027 69.108C137.433 69.108 138.695 69.2741 139.811 69.6065C140.928 69.9304 141.878 70.3864 142.662 70.9744C143.446 71.554 144.043 72.2358 144.452 73.0199C144.869 73.7955 145.078 74.6392 145.078 75.5511V89H138.482V86.2386H138.328C137.936 86.9716 137.459 87.5639 136.896 88.0156C136.342 88.4673 135.707 88.7955 134.991 89C134.284 89.2045 133.504 89.3068 132.652 89.3068ZM134.953 84.858C135.49 84.858 135.993 84.7472 136.462 84.5256C136.939 84.304 137.327 83.9844 137.625 83.5668C137.923 83.1491 138.072 82.642 138.072 82.0455V80.4091C137.885 80.4858 137.685 80.5582 137.472 80.6264C137.267 80.6946 137.045 80.7585 136.807 80.8182C136.577 80.8778 136.33 80.9332 136.065 80.9844C135.81 81.0355 135.541 81.0824 135.26 81.125C134.714 81.2102 134.267 81.3509 133.918 81.5469C133.577 81.7344 133.321 81.9688 133.151 82.25C132.989 82.5227 132.908 82.8295 132.908 83.1705C132.908 83.7159 133.099 84.1335 133.483 84.4233C133.866 84.7131 134.357 84.858 134.953 84.858Z" fill="white"/>
</svg>
