<svg width="22" height="22" viewBox="0 0 22 22" fill="none" xmlns="http://www.w3.org/2000/svg">
<path d="M7.25471 7.27673C7.09161 7.44044 7 7.66235 7 7.89372C7 8.1251 7.09161 8.34701 7.25471 8.51072L9.75723 11.0206L7.25471 13.5293C7.10087 13.6949 7.01711 13.9138 7.02109 14.14C7.02507 14.3662 7.11648 14.582 7.27605 14.7419C7.43563 14.9019 7.65091 14.9935 7.87654 14.9975C8.10218 15.0015 8.32055 14.9176 8.48565 14.7633L10.9893 12.2569L13.4919 14.7657C13.657 14.9199 13.8753 15.0039 14.101 14.9999C14.3266 14.9959 14.5419 14.9042 14.7015 14.7443C14.861 14.5843 14.9524 14.3685 14.9564 14.1423C14.9604 13.9161 14.8766 13.6972 14.7228 13.5317L12.2203 11.0206L14.7228 8.51188C14.8084 8.43195 14.877 8.33556 14.9246 8.22846C14.9722 8.12136 14.9978 8.00574 14.9999 7.88851C15.0019 7.77128 14.9804 7.65483 14.9366 7.54611C14.8928 7.4374 14.8276 7.33864 14.7449 7.25573C14.6622 7.17282 14.5637 7.10746 14.4552 7.06355C14.3468 7.01963 14.2306 6.99807 14.1137 7.00014C13.9967 7.0022 13.8814 7.02786 13.7746 7.07558C13.6677 7.12331 13.5716 7.19211 13.4919 7.27789L10.9893 9.78429L8.48449 7.27673C8.32119 7.11322 8.09982 7.02138 7.86902 7.02138C7.63822 7.02138 7.41685 7.11322 7.25355 7.27673" fill="#2D6A4F"/>
<path fill-rule="evenodd" clip-rule="evenodd" d="M11 0C4.9247 0 0 4.9247 0 11C0 17.0753 4.9247 22 11 22C17.0753 22 22 17.0753 22 11C22 4.9247 17.0753 0 11 0ZM1.65 11C1.65 8.52023 2.63509 6.14202 4.38855 4.38855C6.14202 2.63509 8.52023 1.65 11 1.65C13.4798 1.65 15.858 2.63509 17.6115 4.38855C19.3649 6.14202 20.35 8.52023 20.35 11C20.35 13.4798 19.3649 15.858 17.6115 17.6115C15.858 19.3649 13.4798 20.35 11 20.35C8.52023 20.35 6.14202 19.3649 4.38855 17.6115C2.63509 15.858 1.65 13.4798 1.65 11Z" fill="#2D6A4F"/>
</svg>
