<svg width="20" height="20" viewBox="0 0 20 20" fill="none" xmlns="http://www.w3.org/2000/svg">
<path fill-rule="evenodd" clip-rule="evenodd" d="M13.6363 7.27284C13.6363 8.23726 13.2531 9.16219 12.5712 9.84414C11.8892 10.5261 10.9643 10.9092 9.99989 10.9092C9.03547 10.9092 8.11054 10.5261 7.42859 9.84414C6.74664 9.16219 6.36353 8.23726 6.36353 7.27284C6.36353 6.30841 6.74664 5.38349 7.42859 4.70154C8.11054 4.01959 9.03547 3.63647 9.99989 3.63647C10.9643 3.63647 11.8892 4.01959 12.5712 4.70154C13.2531 5.38349 13.6363 6.30841 13.6363 7.27284ZM11.8181 7.27284C11.8181 7.75505 11.6265 8.21751 11.2855 8.55849C10.9446 8.89946 10.4821 9.09102 9.99989 9.09102C9.51768 9.09102 9.05522 8.89946 8.71424 8.55849C8.37327 8.21751 8.18171 7.75505 8.18171 7.27284C8.18171 6.79063 8.37327 6.32816 8.71424 5.98719C9.05522 5.64621 9.51768 5.45466 9.99989 5.45466C10.4821 5.45466 10.9446 5.64621 11.2855 5.98719C11.6265 6.32816 11.8181 6.79063 11.8181 7.27284Z" fill="currentColor"/>
<path fill-rule="evenodd" clip-rule="evenodd" d="M10 0C4.47727 0 0 4.47727 0 10C0 15.5227 4.47727 20 10 20C15.5227 20 20 15.5227 20 10C20 4.47727 15.5227 0 10 0ZM1.81818 10C1.81818 11.9 2.46636 13.6491 3.55273 15.0382C4.31586 14.0365 5.30014 13.2247 6.42876 12.6661C7.55739 12.1076 8.79982 11.8174 10.0591 11.8182C11.3022 11.8167 12.5292 12.0992 13.6465 12.644C14.7638 13.1888 15.742 13.9815 16.5064 14.9618C17.294 13.9287 17.8244 12.7229 18.0535 11.4442C18.2827 10.1654 18.204 8.85049 17.8241 7.60817C17.4441 6.36585 16.7738 5.23186 15.8686 4.30003C14.9634 3.36821 13.8493 2.66533 12.6185 2.24955C11.3877 1.83378 10.0756 1.71707 8.79078 1.90907C7.50593 2.10107 6.28526 2.59627 5.22979 3.35369C4.17432 4.11111 3.31437 5.10897 2.72112 6.26472C2.12786 7.42047 1.81835 8.70088 1.81818 10ZM10 18.1818C8.12173 18.1849 6.30013 17.5387 4.84364 16.3527C5.42983 15.5133 6.21018 14.8279 7.11825 14.355C8.02633 13.882 9.03523 13.6355 10.0591 13.6364C11.0702 13.6355 12.0668 13.8759 12.9663 14.3376C13.8659 14.7992 14.6422 15.4689 15.2309 16.2909C13.7632 17.5155 11.9115 18.1848 10 18.1818Z" fill="currentColor"/>
</svg>
