<svg width="23" height="22" viewBox="0 0 23 22" fill="none" xmlns="http://www.w3.org/2000/svg">
<path d="M11.615 18.0505L11.5 18.1611L11.3735 18.0505C5.911 13.2839 2.3 10.1319 2.3 6.93573C2.3 4.72384 4.025 3.06492 6.325 3.06492C8.096 3.06492 9.821 4.17087 10.4305 5.67495H12.5695C13.179 4.17087 14.904 3.06492 16.675 3.06492C18.975 3.06492 20.7 4.72384 20.7 6.93573C20.7 10.1319 17.089 13.2839 11.615 18.0505ZM16.675 0.853027C14.674 0.853027 12.7535 1.74884 11.5 3.1534C10.2465 1.74884 8.326 0.853027 6.325 0.853027C2.783 0.853027 0 3.51836 0 6.93573C0 11.1052 3.91 14.5225 9.8325 19.6873L11.5 21.1471L13.1675 19.6873C19.09 14.5225 23 11.1052 23 6.93573C23 3.51836 20.217 0.853027 16.675 0.853027Z" fill="currentColor"/>
</svg>
